<svg xmlns="http://www.w3.org/2000/svg" xmlns:xlink="http://www.w3.org/1999/xlink" width="500" zoomAndPan="magnify" viewBox="0 0 375 374.999991" height="500" preserveAspectRatio="xMidYMid meet" version="1.0"><defs><g/><clipPath id="93f57e15a7"><path d="M 164 23 L 182 23 L 182 115.527344 L 164 115.527344 Z M 164 23 " clip-rule="nonzero"/></clipPath><clipPath id="cb409508e7"><path d="M 123.84375 23 L 182 23 L 182 41 L 123.84375 41 Z M 123.84375 23 " clip-rule="nonzero"/></clipPath><clipPath id="33ea8ad13e"><path d="M 193 23 L 211 23 L 211 115.527344 L 193 115.527344 Z M 193 23 " clip-rule="nonzero"/></clipPath><clipPath id="6718a0f777"><path d="M 193.367188 23.179688 L 250.75 23.179688 L 250.75 40.472656 L 193.367188 40.472656 Z M 193.367188 23.179688 " clip-rule="nonzero"/></clipPath><clipPath id="de30288d26"><path d="M 123.867188 0 L 250.75 0 L 250.75 17.109375 L 123.867188 17.109375 Z M 123.867188 0 " clip-rule="nonzero"/></clipPath></defs><g clip-path="url(#93f57e15a7)"><path fill="#098b41" d="M 181.21875 99.863281 L 164.371094 115.527344 L 164.371094 23.347656 L 181.308594 23.347656 L 181.21875 99.863281 " fill-opacity="1" fill-rule="nonzero"/></g><g clip-path="url(#cb409508e7)"><path fill="#098b41" d="M 137.605469 40.425781 L 123.867188 23.347656 L 181.21875 23.347656 L 181.21875 40.425781 L 137.605469 40.425781 " fill-opacity="1" fill-rule="nonzero"/></g><g clip-path="url(#33ea8ad13e)"><path fill="#098b41" d="M 193.398438 99.863281 L 210.246094 115.527344 L 210.246094 23.347656 L 193.308594 23.347656 L 193.398438 99.863281 " fill-opacity="1" fill-rule="nonzero"/></g><g clip-path="url(#6718a0f777)"><path fill="#098b41" d="M 237.011719 40.425781 L 250.75 23.347656 L 193.398438 23.347656 L 193.398438 40.425781 L 237.011719 40.425781 " fill-opacity="1" fill-rule="nonzero"/></g><g clip-path="url(#de30288d26)"><path fill="#098b41" d="M 250.75 17.082031 L 123.867188 17.082031 L 137.605469 0 L 236.414062 0 L 250.75 17.082031 " fill-opacity="1" fill-rule="nonzero"/></g><g fill="#021622" fill-opacity="1"><g transform="translate(40.543971, 177.00823)"><g><path d="M 23.203125 0 L 13.59375 0 L 13.59375 -37.34375 L 1.265625 -37.34375 L 1.265625 -45.359375 L 35.515625 -45.359375 L 35.515625 -37.34375 L 23.203125 -37.34375 Z M 23.203125 0 "/></g></g></g><g fill="#021622" fill-opacity="1"><g transform="translate(85.138599, 177.00823)"><g><path d="M 31.828125 0 L 5.703125 0 L 5.703125 -45.359375 L 31.828125 -45.359375 L 31.828125 -37.46875 L 15.328125 -37.46875 L 15.328125 -27.515625 L 30.6875 -27.515625 L 30.6875 -19.640625 L 15.328125 -19.640625 L 15.328125 -7.9375 L 31.828125 -7.9375 Z M 31.828125 0 "/></g></g></g><g fill="#021622" fill-opacity="1"><g transform="translate(128.523757, 177.00823)"><g><path d="M 42.375 0 L 31.390625 0 L 20.84375 -17.15625 L 10.296875 0 L 0 0 L 15.046875 -23.390625 L 0.96875 -45.359375 L 11.578125 -45.359375 L 21.34375 -29.03125 L 30.921875 -45.359375 L 41.296875 -45.359375 L 27.046875 -22.859375 Z M 42.375 0 "/></g></g></g><g fill="#021622" fill-opacity="1"><g transform="translate(178.700553, 177.00823)"><g><path d="M 23.203125 0 L 13.59375 0 L 13.59375 -37.34375 L 1.265625 -37.34375 L 1.265625 -45.359375 L 35.515625 -45.359375 L 35.515625 -37.34375 L 23.203125 -37.34375 Z M 23.203125 0 "/></g></g></g><g fill="#021622" fill-opacity="1"><g transform="translate(223.295187, 177.00823)"><g><path d="M 5.703125 0 L 5.703125 -45.359375 L 15.328125 -45.359375 L 15.328125 0 Z M 5.703125 0 "/></g></g></g><g fill="#021622" fill-opacity="1"><g transform="translate(252.135692, 177.00823)"><g><path d="M 15.171875 0 L 5.703125 0 L 5.703125 -45.359375 L 31.703125 -45.359375 L 31.703125 -37.46875 L 15.171875 -37.46875 L 15.171875 -25.78125 L 30.5625 -25.78125 L 30.5625 -17.9375 L 15.171875 -17.9375 Z M 15.171875 0 "/></g></g></g><g fill="#021622" fill-opacity="1"><g transform="translate(294.807578, 177.00823)"><g><path d="M 19.828125 -26.671875 L 29.28125 -45.359375 L 39.640625 -45.359375 L 24.59375 -17.65625 L 24.59375 0 L 15.046875 0 L 15.046875 -17.34375 L 0 -45.359375 L 10.421875 -45.359375 Z M 19.828125 -26.671875 "/></g></g></g><g fill="#021622" fill-opacity="1"><g transform="translate(65.27206, 208.586239)"><g><path d="M 8.4375 0 L 4.9375 0 L 4.9375 -13.578125 L 0.46875 -13.578125 L 0.46875 -16.484375 L 12.90625 -16.484375 L 12.90625 -13.578125 L 8.4375 -13.578125 Z M 8.4375 0 "/></g></g></g><g fill="#021622" fill-opacity="1"><g transform="translate(88.36892, 208.586239)"><g><path d="M 11.5625 0 L 2.078125 0 L 2.078125 -16.484375 L 11.5625 -16.484375 L 11.5625 -13.625 L 5.578125 -13.625 L 5.578125 -10 L 11.15625 -10 L 11.15625 -7.140625 L 5.578125 -7.140625 L 5.578125 -2.890625 L 11.5625 -2.890625 Z M 11.5625 0 "/></g></g></g><g fill="#021622" fill-opacity="1"><g transform="translate(111.026127, 208.586239)"><g><path d="M 15.40625 0 L 11.40625 0 L 7.578125 -6.234375 L 3.75 0 L 0 0 L 5.46875 -8.5 L 0.34375 -16.484375 L 4.203125 -16.484375 L 7.765625 -10.546875 L 11.25 -16.484375 L 15.015625 -16.484375 L 9.828125 -8.3125 Z M 15.40625 0 "/></g></g></g><g fill="#021622" fill-opacity="1"><g transform="translate(136.152152, 208.586239)"><g><path d="M 8.4375 0 L 4.9375 0 L 4.9375 -13.578125 L 0.46875 -13.578125 L 0.46875 -16.484375 L 12.90625 -16.484375 L 12.90625 -13.578125 L 8.4375 -13.578125 Z M 8.4375 0 "/></g></g></g><g fill="#021622" fill-opacity="1"><g transform="translate(159.249015, 208.586239)"><g><path d="M 0.6875 -4.78125 L 0.6875 -7.59375 L 6.75 -7.59375 L 6.75 -4.78125 Z M 0.6875 -4.78125 "/></g></g></g><g fill="#021622" fill-opacity="1"><g transform="translate(176.404923, 208.586239)"><g><path d="M 11.5625 0 L 2.078125 0 L 2.078125 -16.484375 L 11.5625 -16.484375 L 11.5625 -13.625 L 5.578125 -13.625 L 5.578125 -10 L 11.15625 -10 L 11.15625 -7.140625 L 5.578125 -7.140625 L 5.578125 -2.890625 L 11.5625 -2.890625 Z M 11.5625 0 "/></g></g></g><g fill="#021622" fill-opacity="1"><g transform="translate(199.062132, 208.586239)"><g><path d="M 15.75 -8.40625 C 15.75 -5.6875 14.976562 -3.601562 13.4375 -2.15625 C 11.894531 -0.71875 9.664062 0 6.75 0 L 2.078125 0 L 2.078125 -16.484375 L 7.25 -16.484375 C 9.9375 -16.484375 12.023438 -15.769531 13.515625 -14.34375 C 15.003906 -12.925781 15.75 -10.945312 15.75 -8.40625 Z M 12.125 -8.3125 C 12.125 -11.851562 10.5625 -13.625 7.4375 -13.625 L 5.578125 -13.625 L 5.578125 -2.890625 L 7.0625 -2.890625 C 10.4375 -2.890625 12.125 -4.695312 12.125 -8.3125 Z M 12.125 -8.3125 "/></g></g></g><g fill="#021622" fill-opacity="1"><g transform="translate(225.879137, 208.586239)"><g><path d="M 2.078125 0 L 2.078125 -16.484375 L 5.578125 -16.484375 L 5.578125 0 Z M 2.078125 0 "/></g></g></g><g fill="#021622" fill-opacity="1"><g transform="translate(243.249235, 208.586239)"><g><path d="M 8.4375 0 L 4.9375 0 L 4.9375 -13.578125 L 0.46875 -13.578125 L 0.46875 -16.484375 L 12.90625 -16.484375 L 12.90625 -13.578125 L 8.4375 -13.578125 Z M 8.4375 0 "/></g></g></g><g fill="#021622" fill-opacity="1"><g transform="translate(266.346098, 208.586239)"><g><path d="M 17.03125 -8.265625 C 17.03125 -5.535156 16.351562 -3.4375 15 -1.96875 C 13.65625 -0.507812 11.71875 0.21875 9.1875 0.21875 C 6.664062 0.21875 4.726562 -0.507812 3.375 -1.96875 C 2.019531 -3.4375 1.34375 -5.539062 1.34375 -8.28125 C 1.34375 -11.03125 2.019531 -13.128906 3.375 -14.578125 C 4.726562 -16.023438 6.675781 -16.75 9.21875 -16.75 C 11.75 -16.75 13.679688 -16.019531 15.015625 -14.5625 C 16.359375 -13.101562 17.03125 -11.003906 17.03125 -8.265625 Z M 5 -8.265625 C 5 -6.421875 5.347656 -5.03125 6.046875 -4.09375 C 6.753906 -3.164062 7.800781 -2.703125 9.1875 -2.703125 C 11.976562 -2.703125 13.375 -4.554688 13.375 -8.265625 C 13.375 -11.984375 11.988281 -13.84375 9.21875 -13.84375 C 7.820312 -13.84375 6.769531 -13.375 6.0625 -12.4375 C 5.351562 -11.5 5 -10.109375 5 -8.265625 Z M 5 -8.265625 "/></g></g></g><g fill="#021622" fill-opacity="1"><g transform="translate(294.448231, 208.586239)"><g><path d="M 5.578125 -9.171875 L 6.703125 -9.171875 C 7.804688 -9.171875 8.617188 -9.351562 9.140625 -9.71875 C 9.671875 -10.082031 9.9375 -10.660156 9.9375 -11.453125 C 9.9375 -12.234375 9.664062 -12.789062 9.125 -13.125 C 8.59375 -13.457031 7.757812 -13.625 6.625 -13.625 L 5.578125 -13.625 Z M 5.578125 -6.328125 L 5.578125 0 L 2.078125 0 L 2.078125 -16.484375 L 6.875 -16.484375 C 9.113281 -16.484375 10.769531 -16.070312 11.84375 -15.25 C 12.925781 -14.4375 13.46875 -13.203125 13.46875 -11.546875 C 13.46875 -10.578125 13.195312 -9.710938 12.65625 -8.953125 C 12.125 -8.203125 11.367188 -7.613281 10.390625 -7.1875 C 12.878906 -3.476562 14.5 -1.082031 15.25 0 L 11.359375 0 L 7.4375 -6.328125 Z M 5.578125 -6.328125 "/></g></g></g></svg>