<svg xmlns="http://www.w3.org/2000/svg" xmlns:xlink="http://www.w3.org/1999/xlink" width="500" zoomAndPan="magnify" viewBox="0 0 375 374.999991" height="500" preserveAspectRatio="xMidYMid meet" version="1.0"><defs><g/><clipPath id="a79d9f3bbd"><path d="M 158 81 L 180 81 L 180 198.355469 L 158 198.355469 Z M 158 81 " clip-rule="nonzero"/></clipPath><clipPath id="3e98affd1c"><path d="M 106.71875 81 L 180 81 L 180 104 L 106.71875 104 Z M 106.71875 81 " clip-rule="nonzero"/></clipPath><clipPath id="29eb3f1aa4"><path d="M 194 81 L 217 81 L 217 198.355469 L 194 198.355469 Z M 194 81 " clip-rule="nonzero"/></clipPath><clipPath id="afe6ab6dc7"><path d="M 194.945312 81.164062 L 267.769531 81.164062 L 267.769531 103.109375 L 194.945312 103.109375 Z M 194.945312 81.164062 " clip-rule="nonzero"/></clipPath><clipPath id="7f1e4cd848"><path d="M 106.746094 51.75 L 267.769531 51.75 L 267.769531 73.460938 L 106.746094 73.460938 Z M 106.746094 51.75 " clip-rule="nonzero"/></clipPath></defs><g clip-path="url(#a79d9f3bbd)"><path fill="#098b41" d="M 179.53125 178.476562 L 158.148438 198.355469 L 158.148438 81.375 L 179.644531 81.375 L 179.53125 178.476562 " fill-opacity="1" fill-rule="nonzero"/></g><g clip-path="url(#3e98affd1c)"><path fill="#098b41" d="M 124.183594 103.050781 L 106.746094 81.375 L 179.53125 81.375 L 179.53125 103.050781 L 124.183594 103.050781 " fill-opacity="1" fill-rule="nonzero"/></g><g clip-path="url(#29eb3f1aa4)"><path fill="#098b41" d="M 194.984375 178.476562 L 216.367188 198.355469 L 216.367188 81.375 L 194.875 81.375 L 194.984375 178.476562 " fill-opacity="1" fill-rule="nonzero"/></g><g clip-path="url(#afe6ab6dc7)"><path fill="#098b41" d="M 250.332031 103.050781 L 267.769531 81.375 L 194.984375 81.375 L 194.984375 103.050781 L 250.332031 103.050781 " fill-opacity="1" fill-rule="nonzero"/></g><g clip-path="url(#7f1e4cd848)"><path fill="#098b41" d="M 267.769531 73.425781 L 106.746094 73.425781 L 124.183594 51.75 L 249.574219 51.75 L 267.769531 73.425781 " fill-opacity="1" fill-rule="nonzero"/></g><g fill="#021622" fill-opacity="1"><g transform="translate(0.991179, 277.250504)"><g><path d="M 29.453125 0 L 17.25 0 L 17.25 -47.40625 L 1.609375 -47.40625 L 1.609375 -57.5625 L 45.078125 -57.5625 L 45.078125 -47.40625 L 29.453125 -47.40625 Z M 29.453125 0 "/></g></g></g><g fill="#021622" fill-opacity="1"><g transform="translate(57.591049, 277.250504)"><g><path d="M 40.390625 0 L 7.25 0 L 7.25 -57.5625 L 40.390625 -57.5625 L 40.390625 -47.5625 L 19.453125 -47.5625 L 19.453125 -34.921875 L 38.9375 -34.921875 L 38.9375 -24.921875 L 19.453125 -24.921875 L 19.453125 -10.078125 L 40.390625 -10.078125 Z M 40.390625 0 "/></g></g></g><g fill="#021622" fill-opacity="1"><g transform="translate(112.65581, 277.250504)"><g><path d="M 53.78125 0 L 39.84375 0 L 26.453125 -21.765625 L 13.0625 0 L 0 0 L 19.09375 -29.6875 L 1.21875 -57.5625 L 14.6875 -57.5625 L 27.078125 -36.84375 L 39.25 -57.5625 L 52.390625 -57.5625 L 34.328125 -29.015625 Z M 53.78125 0 "/></g></g></g><g fill="#021622" fill-opacity="1"><g transform="translate(176.340837, 277.250504)"><g><path d="M 29.453125 0 L 17.25 0 L 17.25 -47.40625 L 1.609375 -47.40625 L 1.609375 -57.5625 L 45.078125 -57.5625 L 45.078125 -47.40625 L 29.453125 -47.40625 Z M 29.453125 0 "/></g></g></g><g fill="#021622" fill-opacity="1"><g transform="translate(232.940703, 277.250504)"><g><path d="M 7.25 0 L 7.25 -57.5625 L 19.453125 -57.5625 L 19.453125 0 Z M 7.25 0 "/></g></g></g><g fill="#021622" fill-opacity="1"><g transform="translate(269.544696, 277.250504)"><g><path d="M 19.25 0 L 7.25 0 L 7.25 -57.5625 L 40.234375 -57.5625 L 40.234375 -47.5625 L 19.25 -47.5625 L 19.25 -32.71875 L 38.78125 -32.71875 L 38.78125 -22.75 L 19.25 -22.75 Z M 19.25 0 "/></g></g></g><g fill="#021622" fill-opacity="1"><g transform="translate(323.704131, 277.250504)"><g><path d="M 25.15625 -33.859375 L 37.15625 -57.5625 L 50.3125 -57.5625 L 31.21875 -22.40625 L 31.21875 0 L 19.09375 0 L 19.09375 -22 L 0 -57.5625 L 13.234375 -57.5625 Z M 25.15625 -33.859375 "/></g></g></g><g fill="#021622" fill-opacity="1"><g transform="translate(32.385981, 317.182743)"><g><path d="M 10.703125 0 L 6.265625 0 L 6.265625 -17.234375 L 0.59375 -17.234375 L 0.59375 -20.921875 L 16.390625 -20.921875 L 16.390625 -17.234375 L 10.703125 -17.234375 Z M 10.703125 0 "/></g></g></g><g fill="#021622" fill-opacity="1"><g transform="translate(61.702372, 317.182743)"><g><path d="M 14.6875 0 L 2.640625 0 L 2.640625 -20.921875 L 14.6875 -20.921875 L 14.6875 -17.296875 L 7.078125 -17.296875 L 7.078125 -12.703125 L 14.15625 -12.703125 L 14.15625 -9.0625 L 7.078125 -9.0625 L 7.078125 -3.671875 L 14.6875 -3.671875 Z M 14.6875 0 "/></g></g></g><g fill="#021622" fill-opacity="1"><g transform="translate(90.460646, 317.182743)"><g><path d="M 19.546875 0 L 14.484375 0 L 9.625 -7.921875 L 4.75 0 L 0 0 L 6.9375 -10.796875 L 0.4375 -20.921875 L 5.34375 -20.921875 L 9.84375 -13.390625 L 14.265625 -20.921875 L 19.046875 -20.921875 L 12.484375 -10.546875 Z M 19.546875 0 "/></g></g></g><g fill="#021622" fill-opacity="1"><g transform="translate(122.352988, 317.182743)"><g><path d="M 10.703125 0 L 6.265625 0 L 6.265625 -17.234375 L 0.59375 -17.234375 L 0.59375 -20.921875 L 16.390625 -20.921875 L 16.390625 -17.234375 L 10.703125 -17.234375 Z M 10.703125 0 "/></g></g></g><g fill="#021622" fill-opacity="1"><g transform="translate(151.669379, 317.182743)"><g><path d="M 0.875 -6.0625 L 0.875 -9.640625 L 8.5625 -9.640625 L 8.5625 -6.0625 Z M 0.875 -6.0625 "/></g></g></g><g fill="#021622" fill-opacity="1"><g transform="translate(173.443971, 317.182743)"><g><path d="M 14.6875 0 L 2.640625 0 L 2.640625 -20.921875 L 14.6875 -20.921875 L 14.6875 -17.296875 L 7.078125 -17.296875 L 7.078125 -12.703125 L 14.15625 -12.703125 L 14.15625 -9.0625 L 7.078125 -9.0625 L 7.078125 -3.671875 L 14.6875 -3.671875 Z M 14.6875 0 "/></g></g></g><g fill="#021622" fill-opacity="1"><g transform="translate(202.202239, 317.182743)"><g><path d="M 20 -10.65625 C 20 -7.21875 19.015625 -4.582031 17.046875 -2.75 C 15.085938 -0.914062 12.257812 0 8.5625 0 L 2.640625 0 L 2.640625 -20.921875 L 9.203125 -20.921875 C 12.617188 -20.921875 15.269531 -20.019531 17.15625 -18.21875 C 19.050781 -16.414062 20 -13.894531 20 -10.65625 Z M 15.390625 -10.546875 C 15.390625 -15.046875 13.40625 -17.296875 9.4375 -17.296875 L 7.078125 -17.296875 L 7.078125 -3.671875 L 8.96875 -3.671875 C 13.25 -3.671875 15.390625 -5.960938 15.390625 -10.546875 Z M 15.390625 -10.546875 "/></g></g></g><g fill="#021622" fill-opacity="1"><g transform="translate(236.2412, 317.182743)"><g><path d="M 2.640625 0 L 2.640625 -20.921875 L 7.078125 -20.921875 L 7.078125 0 Z M 2.640625 0 "/></g></g></g><g fill="#021622" fill-opacity="1"><g transform="translate(258.287692, 317.182743)"><g><path d="M 10.703125 0 L 6.265625 0 L 6.265625 -17.234375 L 0.59375 -17.234375 L 0.59375 -20.921875 L 16.390625 -20.921875 L 16.390625 -17.234375 L 10.703125 -17.234375 Z M 10.703125 0 "/></g></g></g><g fill="#021622" fill-opacity="1"><g transform="translate(287.604088, 317.182743)"><g><path d="M 21.625 -10.484375 C 21.625 -7.023438 20.765625 -4.363281 19.046875 -2.5 C 17.328125 -0.644531 14.867188 0.28125 11.671875 0.28125 C 8.460938 0.28125 6 -0.644531 4.28125 -2.5 C 2.5625 -4.363281 1.703125 -7.035156 1.703125 -10.515625 C 1.703125 -14.003906 2.5625 -16.664062 4.28125 -18.5 C 6.007812 -20.332031 8.476562 -21.25 11.6875 -21.25 C 14.90625 -21.25 17.363281 -20.320312 19.0625 -18.46875 C 20.769531 -16.625 21.625 -13.960938 21.625 -10.484375 Z M 6.359375 -10.484375 C 6.359375 -8.148438 6.800781 -6.390625 7.6875 -5.203125 C 8.570312 -4.023438 9.898438 -3.4375 11.671875 -3.4375 C 15.203125 -3.4375 16.96875 -5.785156 16.96875 -10.484375 C 16.96875 -15.203125 15.207031 -17.5625 11.6875 -17.5625 C 9.925781 -17.5625 8.597656 -16.96875 7.703125 -15.78125 C 6.804688 -14.59375 6.359375 -12.828125 6.359375 -10.484375 Z M 6.359375 -10.484375 "/></g></g></g><g fill="#021622" fill-opacity="1"><g transform="translate(323.274496, 317.182743)"><g><path d="M 7.078125 -11.640625 L 8.5 -11.640625 C 9.90625 -11.640625 10.941406 -11.867188 11.609375 -12.328125 C 12.273438 -12.796875 12.609375 -13.535156 12.609375 -14.546875 C 12.609375 -15.535156 12.265625 -16.238281 11.578125 -16.65625 C 10.898438 -17.082031 9.847656 -17.296875 8.421875 -17.296875 L 7.078125 -17.296875 Z M 7.078125 -8.03125 L 7.078125 0 L 2.640625 0 L 2.640625 -20.921875 L 8.734375 -20.921875 C 11.578125 -20.921875 13.679688 -20.398438 15.046875 -19.359375 C 16.410156 -18.328125 17.09375 -16.757812 17.09375 -14.65625 C 17.09375 -13.425781 16.753906 -12.332031 16.078125 -11.375 C 15.398438 -10.414062 14.441406 -9.664062 13.203125 -9.125 C 16.347656 -4.414062 18.394531 -1.375 19.34375 0 L 14.421875 0 L 9.4375 -8.03125 Z M 7.078125 -8.03125 "/></g></g></g></svg>