<svg xmlns="http://www.w3.org/2000/svg" xmlns:xlink="http://www.w3.org/1999/xlink" width="500" zoomAndPan="magnify" viewBox="0 0 375 374.999991" height="500" preserveAspectRatio="xMidYMid meet" version="1.0"><defs><clipPath id="86bedac7bf"><path d="M 120 86 L 170 86 L 170 356.25 L 120 356.25 Z M 120 86 " clip-rule="nonzero"/></clipPath><clipPath id="20affe50e4"><path d="M 0.519531 86 L 170 86 L 170 137 L 0.519531 137 Z M 0.519531 86 " clip-rule="nonzero"/></clipPath><clipPath id="d53020d57b"><path d="M 205 86 L 256 86 L 256 356.25 L 205 356.25 Z M 205 86 " clip-rule="nonzero"/></clipPath><clipPath id="8ac30d0d1d"><path d="M 205.5 86.464844 L 374.695312 86.464844 L 374.695312 136.984375 L 205.5 136.984375 Z M 205.5 86.464844 " clip-rule="nonzero"/></clipPath><clipPath id="23f0544f87"><path d="M 0.582031 18.75 L 374.695312 18.75 L 374.695312 68.730469 L 0.582031 68.730469 Z M 0.582031 18.75 " clip-rule="nonzero"/></clipPath></defs><g clip-path="url(#86bedac7bf)"><path fill="#098b41" d="M 169.6875 310.488281 L 120.003906 356.25 L 120.003906 86.953125 L 169.945312 86.953125 L 169.6875 310.488281 " fill-opacity="1" fill-rule="nonzero"/></g><g clip-path="url(#20affe50e4)"><path fill="#098b41" d="M 41.097656 136.855469 L 0.582031 86.953125 L 169.6875 86.953125 L 169.6875 136.855469 L 41.097656 136.855469 " fill-opacity="1" fill-rule="nonzero"/></g><g clip-path="url(#d53020d57b)"><path fill="#098b41" d="M 205.59375 310.488281 L 255.273438 356.25 L 255.273438 86.953125 L 205.332031 86.953125 L 205.59375 310.488281 " fill-opacity="1" fill-rule="nonzero"/></g><g clip-path="url(#8ac30d0d1d)"><path fill="#098b41" d="M 334.179688 136.855469 L 374.695312 86.953125 L 205.59375 86.953125 L 205.59375 136.855469 L 334.179688 136.855469 " fill-opacity="1" fill-rule="nonzero"/></g><g clip-path="url(#23f0544f87)"><path fill="#098b41" d="M 374.695312 68.648438 L 0.582031 68.648438 L 41.097656 18.75 L 332.417969 18.75 L 374.695312 68.648438 " fill-opacity="1" fill-rule="nonzero"/></g></svg>